<?xml version="1.0" encoding="utf-8"?>
<!-- Generator: Adobe Illustrator 21.1.0, SVG Export Plug-In . SVG Version: 6.00 Build 0)  -->
<svg version="1.1" id="Layer_1" xmlns="http://www.w3.org/2000/svg" xmlns:xlink="http://www.w3.org/1999/xlink" x="0px" y="0px"
	 viewBox="0 0 214 44" style="enable-background:new 0 0 214 44;" xml:space="preserve">
<style type="text/css">
	.st0{fill:#1E1C27;}
	.st1{fill:#ECEFF1;}
	.st2{fill:#F6F8F9;}
	.st3{fill:#D32F2F;}
	.st4{fill:#E53935;}
	.st5{fill:#D0D4D6;}
</style>
<g>
	<path class="st0" d="M8.5,13.6c-2.4,0-4.4,0.8-6,2.5c-1.7,1.7-2.5,3.7-2.5,6v12.7c0,0.6,0.2,1.1,0.6,1.6C1,36.8,1.5,37,2.1,37
		s1.1-0.2,1.5-0.6c0.4-0.5,0.6-1,0.6-1.6V22.1c0-1.2,0.4-2.2,1.2-3s1.8-1.3,3-1.3s2.2,0.4,3,1.3c0.8,0.8,1.2,1.8,1.2,3
		s-0.4,2.2-1.2,3s-1.8,1.2-3,1.2c-0.6,0-1.1,0.2-1.5,0.6s-0.6,0.9-0.6,1.5s0.2,1.1,0.6,1.5s0.9,0.6,1.5,0.6c2.3,0,4.3-0.8,6-2.5
		s2.5-3.7,2.5-6s-0.8-4.4-2.5-6C12.8,14.4,10.8,13.6,8.5,13.6z"/>
	<path class="st0" d="M26.1,27c-0.4,0.4-0.6,0.9-0.6,1.5s0.2,1.1,0.6,1.5s0.9,0.6,1.5,0.6H34c0.6,0,1.1-0.2,1.5-0.6s0.6-0.9,0.6-1.5
		c0-2.3-0.8-4.4-2.5-6c-1.7-1.7-3.7-2.5-6-2.5c-2.4,0-4.4,0.8-6,2.5c-1.7,1.7-2.5,3.7-2.5,6s0.8,4.4,2.5,6c1.7,1.7,3.7,2.5,6,2.5H34
		c0.6,0,1.1-0.2,1.5-0.6c0.4-0.4,0.6-0.9,0.6-1.5s-0.2-1.1-0.6-1.5c-0.4-0.4-0.9-0.6-1.5-0.6h-6.4c-1.2,0-2.2-0.4-3-1.2
		s-1.3-1.8-1.3-3s0.4-2.2,1.3-3c0.8-0.8,1.8-1.3,3-1.3c1.6,0,2.8,0.7,3.7,2.1h-3.7C27,26.4,26.5,26.6,26.1,27z"/>
	<path class="st0" d="M55.8,20c-2.4,0-4.4,0.8-6,2.5c-1.7,1.7-2.5,3.7-2.5,6s0.8,4.4,2.5,6c1.7,1.7,3.7,2.5,6,2.5s4.3-0.8,6-2.5
		s2.5-3.7,2.5-6s-0.8-4.3-2.5-6C60.2,20.8,58.2,20,55.8,20z M58.8,31.5c-0.8,0.8-1.8,1.2-3,1.2s-2.2-0.4-3-1.2s-1.2-1.8-1.2-3
		s0.4-2.2,1.2-3s1.8-1.3,3-1.3s2.2,0.4,3,1.3c0.8,0.8,1.2,1.8,1.2,3C60.1,29.6,59.7,30.6,58.8,31.5z"/>
	<path class="st0" d="M115,20c-2.4,0-4.4,0.8-6,2.5c-1.7,1.7-2.5,3.7-2.5,6s0.8,4.4,2.5,6c1.7,1.7,3.7,2.5,6,2.5
		c0.6,0,1.1-0.2,1.5-0.6c0.4-0.4,0.6-0.9,0.6-1.5s-0.2-1.1-0.6-1.5s-0.9-0.6-1.5-0.6c-1.2,0-2.2-0.4-3-1.2s-1.2-1.8-1.2-3
		s0.4-2.2,1.2-3c0.8-0.8,1.8-1.3,3-1.3s2.2,0.4,3,1.3c0.8,0.8,1.2,1.8,1.2,3V35c0,0.6,0.2,1.1,0.6,1.5s0.9,0.6,1.5,0.6
		s1.1-0.2,1.5-0.6c0.4-0.4,0.6-0.9,0.6-1.5v-6.4c0-2.3-0.8-4.4-2.5-6C119.4,20.8,117.4,20,115,20z"/>
	<path class="st0" d="M41.9,13.5c-0.6,0-1.1,0.2-1.5,0.6s-0.6,0.9-0.6,1.5v19.2c0,0.6,0.2,1.1,0.6,1.5c0.4,0.4,0.9,0.6,1.5,0.6
		s1.1-0.2,1.5-0.6c0.4-0.4,0.6-0.9,0.6-1.5V15.7c0-0.6-0.2-1.1-0.6-1.5C43,13.7,42.5,13.5,41.9,13.5z"/>
	<path class="st0" d="M82.3,26.3c-0.6,0-1.1,0.2-1.5,0.6s-0.6,0.9-0.6,1.5c0,1.2-0.4,2.2-1.2,3c-0.8,0.8-1.8,1.2-3,1.2
		s-2.2-0.4-3-1.2s-1.2-1.8-1.2-3c0,0,0-1.9,0-4.2H78c0.6,0,1.1-0.2,1.5-0.6s0.6-0.9,0.6-1.5s-0.2-1.1-0.6-1.5S78.6,20,78,20h-6.4
		c0-2.3,0-4.3,0-4.3c0-0.6-0.2-1.1-0.6-1.5s-0.9-0.6-1.5-0.6s-1.1,0.2-1.5,0.6c-0.4,0.4-0.6,0.9-0.6,1.5v12.7c0,2.3,0.8,4.4,2.5,6
		c1.7,1.7,3.7,2.5,6,2.5s4.3-0.8,6-2.5s2.5-3.7,2.5-6c0-0.6-0.2-1.1-0.6-1.5S82.9,26.3,82.3,26.3z"/>
	<path class="st0" d="M99.3,28.5l4.7-4.9c0.4-0.4,0.6-0.9,0.6-1.5s-0.2-1.1-0.7-1.5c-0.4-0.4-0.9-0.6-1.5-0.6s-1.1,0.2-1.5,0.7
		l-8.6,9v-14c0-0.6-0.2-1.1-0.6-1.5s-0.9-0.6-1.5-0.6s-1.1,0.2-1.5,0.6c-0.4,0.4-0.6,0.9-0.6,1.5v19.2l0,0c0,0,0,0,0,0.1
		c0,0.6,0.2,1.1,0.7,1.5c0.4,0.4,0.9,0.6,1.5,0.6s1.1-0.2,1.5-0.7l4.6-4.8l4.6,4.8c0.4,0.4,0.9,0.6,1.5,0.7c0.6,0,1.1-0.2,1.5-0.6
		c0.4-0.4,0.6-0.9,0.7-1.5c0-0.6-0.2-1.1-0.6-1.5L99.3,28.5z"/>
	<path class="st0" d="M164.7,19.9c-1.5,0-3,0.4-4.3,1.1v-5.3c0-0.6-0.2-1.1-0.6-1.5c-0.4-0.4-0.9-0.6-1.5-0.6s-1.1,0.2-1.5,0.6
		c-0.4,0.4-0.6,0.9-0.6,1.5c0,3.2,0,6.4,0,9.6s0,6.4,0,9.6c0,0.6,0.2,1.1,0.6,1.5c0.4,0.4,0.9,0.6,1.5,0.6s1.1-0.2,1.5-0.6
		c0.4-0.4,0.6-0.9,0.6-1.5v-6.4c0-1.2,0.4-2.2,1.3-3c0.8-0.8,1.8-1.3,3-1.3s2.2,0.4,3,1.3c0.8,0.8,1.3,1.8,1.3,3v6.4
		c0,0.6,0.2,1.1,0.6,1.5c0.4,0.4,0.9,0.6,1.5,0.6s1.1-0.2,1.5-0.6c0.4-0.4,0.6-0.9,0.6-1.5v-6.4c0-2.4-0.8-4.4-2.5-6
		C169.1,20.8,167.1,19.9,164.7,19.9z"/>
	<path class="st0" d="M185.1,19.9c-2.4,0-4.4,0.8-6,2.5c-1.7,1.7-2.5,3.7-2.5,6c0,2.4,0.8,4.4,2.5,6c1.7,1.7,3.7,2.5,6,2.5
		s4.3-0.8,6-2.5s2.5-3.7,2.5-6c0-2.4-0.8-4.4-2.5-6C189.4,20.7,187.4,19.9,185.1,19.9z M188.1,31.4c-0.8,0.8-1.8,1.2-3,1.2
		s-2.2-0.4-3-1.2s-1.3-1.8-1.3-3s0.4-2.2,1.3-3c0.8-0.8,1.8-1.3,3-1.3s2.2,0.4,3,1.3c0.8,0.8,1.3,1.8,1.3,3
		C189.4,29.6,188.9,30.6,188.1,31.4z"/>
	<path class="st0" d="M211.5,22.4c-1.7-1.7-3.7-2.5-6-2.5c-2.4,0-4.4,0.8-6,2.5c-1.7,1.7-2.5,3.7-2.5,6v12.8c0,0.6,0.2,1.1,0.6,1.5
		c0.4,0.4,0.9,0.6,1.5,0.6s1.1-0.2,1.5-0.6c0.4-0.4,0.6-0.9,0.6-1.5V28.4c0-1.2,0.4-2.2,1.3-3c0.8-0.8,1.8-1.3,3-1.3s2.2,0.4,3,1.3
		c0.8,0.8,1.3,1.8,1.3,3s-0.4,2.2-1.3,3c-0.8,0.8-1.8,1.2-3,1.2c-0.6,0-1.1,0.2-1.5,0.6c-0.4,0.4-0.6,0.9-0.6,1.5s0.2,1.1,0.6,1.5
		c0.4,0.4,0.9,0.6,1.5,0.6c2.3,0,4.3-0.8,6-2.5s2.5-3.7,2.5-6C214,26,213.2,24,211.5,22.4z"/>
	<path class="st0" d="M147.6,24.1c-1.2-0.4-2.7-0.9-4.7-1.3c-2.3-0.5-3.3-0.9-3.7-1.2c-0.5-0.3-0.7-0.7-0.7-1.4c0-0.7,0.3-1.3,1-1.7
		c0.7-0.5,1.8-0.8,3.3-0.8c3.1,0,4,1.1,4.6,2.2c0.7,1.2,1,1.7,1.9,1.8c0.8,0.1,1.7-0.2,2.2-0.9c0.4-0.5,0.5-1.2,0.2-1.8v-0.1
		c-0.7-1.5-1.6-2.8-2.7-3.6c-1.8-1.3-3.9-1.9-6.3-1.9c-2.5,0-4.6,0.6-6.1,1.9c-1.6,1.3-2.4,3-2.4,5c0,1.8,0.6,3.3,1.9,4.4
		c1.2,1,3.1,1.8,5.7,2.4c2.4,0.5,4.1,1,5.1,1.5c0.8,0.4,1.1,1,1.1,1.9s-0.4,1.5-1.1,2c-0.8,0.6-2,0.9-3.4,0.9c-1.5,0-2.8-0.3-3.9-1
		c-0.7-0.5-1.5-2-1.5-2c-0.3-0.9-1.2-1.5-2.1-1.5c-1.2,0-2.2,1-2.2,2.2c0,0.3,0.1,0.7,0.3,1c0.4,1.3,1.2,2.4,2.1,3.2
		c1.7,1.5,4.2,2.3,7.4,2.3c2.6,0,4.7-0.7,6.4-2c1.7-1.4,2.5-3.2,2.5-5.3c0-1.7-0.5-3.1-1.4-4.1C150,25.3,148.9,24.6,147.6,24.1z"/>
</g>
<g>
	<g>
		<path class="st1" d="M124.1,29c-0.1,0.6-0.7,1.1-1.4,1.2c0.1,0.5-0.4,0.9-0.9,1c-0.5,0-1-0.2-1.3-0.5c-0.3-0.4-0.5-0.9-0.4-1.4
			c-0.6-0.1-1.1-0.7-1-1.3c0.1-0.6,0.7-1.1,1.3-1c0-0.5,0.4-0.9,0.8-1.1s0.9-0.1,1.4,0c0.8,0.2,0.8,1.1,0.7,1.7
			C123.7,27.5,124.3,28.3,124.1,29z"/>
		<path class="st2" d="M119.6,27.7c-0.2,0.5,0.1,1,0.6,1.2h0.1V29l0,0l0,0c0,0.5,0.4,1,0.9,1s1.1-0.4,1-0.9c0-0.3-0.1-0.5-0.2-0.8
			c0.3-0.1,0.5-0.3,0.7-0.6c0.5-0.7,0-1.6-0.8-1.8c-0.7-0.1-1.3,0.4-1.4,1.1C120.3,27,119.8,27.3,119.6,27.7z"/>
	</g>
	<path class="st3" d="M121.9,28.8c1.6,1,4.1-0.6,4.3-2.4c0.5-4.6-3.4-9.6,0.4-13.4c4.6-4.4,9.7,1.4,12.6,5.4l-5.6,3
		c-1.4,0.5-2.5,1.6-3.3,2.8c-0.8,1.2-1.4,2.6-2.4,3.7c-0.9,1.2-2.1,2.1-3.7,2.3c-1.2,0.1-2.6-0.7-2.7-2.1
		C121.7,28.6,121.8,28.7,121.9,28.8z"/>
	<path class="st4" d="M126.9,13.2c-3.8,3.8,0,8.7-0.4,13.3c-0.2,1.8-2.6,3.5-4.3,2.5c-0.2-0.1-0.3-0.2-0.5-0.3
		c-0.1-0.2-0.2-0.5-0.2-0.7c0.2,0.9,1.7,1.1,2.4,0.4c0.7-0.7,0.7-1.8,0.7-2.7c-0.4-4-2.8-7.8-2.4-11.8c0.3-3.3,2.6-6.2,5.4-8
		c3.8-2.5,8.7-3.3,13.1-2.2c4.4,1.2,8.3,4.2,10.4,8.3l-11.9,6.6C136.4,14.6,131.4,8.8,126.9,13.2z"/>
	<g>
		<path class="st5" d="M137,14.2c1.2-0.7,2.4-0.8,3.7-0.7c2.8,0.3,5-2.1,7.8-2.4c1.4-0.2,2.2,0.7,3,1.7c0.9,1.2,0.8,2.6,0.3,4.1
			c-0.4,0.4-0.9,0.7-1.5,0.8c-0.8,0.2-1.6,0-2.4,0c-1.5,0.1-2.9,0.8-4.2,1.5c-2.2,1.2-4.4,2.4-6.5,3.9c-1,0.7-2.1,1.5-3.4,1.4
			c-0.5,0-0.9-0.2-1.3-0.5C131.4,20.2,133.6,16.3,137,14.2z"/>
		<path class="st2" d="M131.2,22.3c-0.3-1.2-0.1-2.4,0.4-3.5s1.3-2,2.1-3c1.5-1.8,3.1-3.7,5.3-4.3c1.5-0.4,3.2-0.2,4.7-0.7
			c1.2-0.4,2.3-1.3,3.5-1.8c3.1-1.3,5.7,1.7,5.9,4.6c0.1,1.2-0.4,2.5-1.3,3.3c0.5-1.4,0.6-2.9-0.3-4.1c-0.8-0.9-1.6-1.8-3-1.7
			c-2.8,0.3-4.9,2.7-7.8,2.4c-1.3-0.1-2.5,0-3.7,0.7c-3.4,2.1-5.5,6-4.6,9.7C131.8,23.6,131.4,23,131.2,22.3z"/>
	</g>
</g>
</svg>
