<?xml version="1.0" encoding="utf-8"?>
<!-- Generator: Adobe Illustrator 22.0.1, SVG Export Plug-In . SVG Version: 6.00 Build 0)  -->
<svg version="1.1" id="Layer_1" xmlns="http://www.w3.org/2000/svg" xmlns:xlink="http://www.w3.org/1999/xlink" x="0px" y="0px"
	 viewBox="0 0 214 32" style="enable-background:new 0 0 214 32;" xml:space="preserve">
<style type="text/css">
	.st0{fill:#1E1C27;}
</style>
<g>
	<path class="st0" d="M8.5,1.2c-2.4,0-4.4,0.8-6,2.5C0.8,5.4,0,7.4,0,9.7v12.7C0,23,0.2,23.5,0.6,24c0.4,0.4,0.9,0.6,1.5,0.6
		c0.6,0,1.1-0.2,1.5-0.6C4,23.5,4.2,23,4.2,22.4V9.7c0-1.2,0.4-2.2,1.2-3c0.8-0.8,1.8-1.3,3-1.3c1.2,0,2.2,0.4,3,1.3
		c0.8,0.8,1.2,1.8,1.2,3c0,1.2-0.4,2.2-1.2,3c-0.8,0.8-1.8,1.2-3,1.2c-0.6,0-1.1,0.2-1.5,0.6c-0.4,0.4-0.6,0.9-0.6,1.5
		c0,0.6,0.2,1.1,0.6,1.5c0.4,0.4,0.9,0.6,1.5,0.6c2.3,0,4.3-0.8,6-2.5c1.7-1.7,2.5-3.7,2.5-6c0-2.3-0.8-4.4-2.5-6
		C12.8,2,10.8,1.2,8.5,1.2z"/>
	<path class="st0" d="M26.1,14.6c-0.4,0.4-0.6,0.9-0.6,1.5c0,0.6,0.2,1.1,0.6,1.5c0.4,0.4,0.9,0.6,1.5,0.6h6.4
		c0.6,0,1.1-0.2,1.5-0.6c0.4-0.4,0.6-0.9,0.6-1.5c0-2.3-0.8-4.4-2.5-6c-1.7-1.7-3.7-2.5-6-2.5c-2.4,0-4.4,0.8-6,2.5
		c-1.7,1.7-2.5,3.7-2.5,6c0,2.3,0.8,4.4,2.5,6c1.7,1.7,3.7,2.5,6,2.5h6.4c0.6,0,1.1-0.2,1.5-0.6c0.4-0.4,0.6-0.9,0.6-1.5
		c0-0.6-0.2-1.1-0.6-1.5c-0.4-0.4-0.9-0.6-1.5-0.6h-6.4c-1.2,0-2.2-0.4-3-1.2c-0.8-0.8-1.3-1.8-1.3-3c0-1.2,0.4-2.2,1.3-3
		c0.8-0.8,1.8-1.3,3-1.3c1.6,0,2.8,0.7,3.7,2.1h-3.7C27,14,26.5,14.2,26.1,14.6z"/>
	<path class="st0" d="M55.8,7.6c-2.4,0-4.4,0.8-6,2.5c-1.7,1.7-2.5,3.7-2.5,6c0,2.3,0.8,4.4,2.5,6c1.7,1.7,3.7,2.5,6,2.5
		c2.3,0,4.3-0.8,6-2.5c1.7-1.7,2.5-3.7,2.5-6c0-2.3-0.8-4.3-2.5-6C60.2,8.4,58.2,7.6,55.8,7.6z M58.8,19.1c-0.8,0.8-1.8,1.2-3,1.2
		c-1.2,0-2.2-0.4-3-1.2c-0.8-0.8-1.2-1.8-1.2-3c0-1.2,0.4-2.2,1.2-3c0.8-0.8,1.8-1.3,3-1.3c1.2,0,2.2,0.4,3,1.3
		c0.8,0.8,1.2,1.8,1.2,3C60.1,17.2,59.7,18.2,58.8,19.1z"/>
	<path class="st0" d="M115,7.6c-2.4,0-4.4,0.8-6,2.5c-1.7,1.7-2.5,3.7-2.5,6c0,2.3,0.8,4.4,2.5,6c1.7,1.7,3.7,2.5,6,2.5
		c0.6,0,1.1-0.2,1.5-0.6c0.4-0.4,0.6-0.9,0.6-1.5c0-0.6-0.2-1.1-0.6-1.5c-0.4-0.4-0.9-0.6-1.5-0.6c-1.2,0-2.2-0.4-3-1.2
		c-0.8-0.8-1.2-1.8-1.2-3c0-1.2,0.4-2.2,1.2-3c0.8-0.8,1.8-1.3,3-1.3c1.2,0,2.2,0.4,3,1.3c0.8,0.8,1.2,1.8,1.2,3v6.4
		c0,0.6,0.2,1.1,0.6,1.5c0.4,0.4,0.9,0.6,1.5,0.6c0.6,0,1.1-0.2,1.5-0.6c0.4-0.4,0.6-0.9,0.6-1.5v-6.4c0-2.3-0.8-4.4-2.5-6
		C119.4,8.4,117.4,7.6,115,7.6z"/>
	<path class="st0" d="M41.9,1.1c-0.6,0-1.1,0.2-1.5,0.6c-0.4,0.4-0.6,0.9-0.6,1.5v19.2c0,0.6,0.2,1.1,0.6,1.5
		c0.4,0.4,0.9,0.6,1.5,0.6c0.6,0,1.1-0.2,1.5-0.6c0.4-0.4,0.6-0.9,0.6-1.5V3.3c0-0.6-0.2-1.1-0.6-1.5C43,1.3,42.5,1.1,41.9,1.1z"/>
	<path class="st0" d="M82.3,13.9c-0.6,0-1.1,0.2-1.5,0.6c-0.4,0.4-0.6,0.9-0.6,1.5c0,1.2-0.4,2.2-1.2,3c-0.8,0.8-1.8,1.2-3,1.2
		c-1.2,0-2.2-0.4-3-1.2c-0.8-0.8-1.2-1.8-1.2-3c0,0,0-1.9,0-4.2H78c0.6,0,1.1-0.2,1.5-0.6c0.4-0.4,0.6-0.9,0.6-1.5
		c0-0.6-0.2-1.1-0.6-1.5c-0.4-0.4-0.9-0.6-1.5-0.6h-6.4c0-2.3,0-4.3,0-4.3c0-0.6-0.2-1.1-0.6-1.5c-0.4-0.4-0.9-0.6-1.5-0.6
		c-0.6,0-1.1,0.2-1.5,0.6c-0.4,0.4-0.6,0.9-0.6,1.5v12.7c0,2.3,0.8,4.4,2.5,6c1.7,1.7,3.7,2.5,6,2.5c2.3,0,4.3-0.8,6-2.5
		c1.7-1.7,2.5-3.7,2.5-6c0-0.6-0.2-1.1-0.6-1.5C83.4,14.1,82.9,13.9,82.3,13.9z"/>
	<path class="st0" d="M99.3,16.1l4.7-4.9c0.4-0.4,0.6-0.9,0.6-1.5c0-0.6-0.2-1.1-0.7-1.5c-0.4-0.4-0.9-0.6-1.5-0.6
		c-0.6,0-1.1,0.2-1.5,0.7l-8.6,9v-14c0-0.6-0.2-1.1-0.6-1.5c-0.4-0.4-0.9-0.6-1.5-0.6c-0.6,0-1.1,0.2-1.5,0.6
		c-0.4,0.4-0.6,0.9-0.6,1.5v19.2c0,0,0,0,0,0c0,0,0,0,0,0.1c0,0.6,0.2,1.1,0.7,1.5c0.4,0.4,0.9,0.6,1.5,0.6c0.6,0,1.1-0.2,1.5-0.7
		l4.6-4.8l4.6,4.8c0.4,0.4,0.9,0.6,1.5,0.7c0.6,0,1.1-0.2,1.5-0.6c0.4-0.4,0.6-0.9,0.7-1.5c0-0.6-0.2-1.1-0.6-1.5L99.3,16.1z"/>
	<path class="st0" d="M164.7,7.5c-1.5,0-3,0.4-4.3,1.1V3.3c0-0.6-0.2-1.1-0.6-1.5c-0.4-0.4-0.9-0.6-1.5-0.6c-0.6,0-1.1,0.2-1.5,0.6
		c-0.4,0.4-0.6,0.9-0.6,1.5c0,3.2,0,6.4,0,9.6c0,3.2,0,6.4,0,9.6c0,0.6,0.2,1.1,0.6,1.5c0.4,0.4,0.9,0.6,1.5,0.6
		c0.6,0,1.1-0.2,1.5-0.6c0.4-0.4,0.6-0.9,0.6-1.5v-6.4c0-1.2,0.4-2.2,1.3-3c0.8-0.8,1.8-1.3,3-1.3c1.2,0,2.2,0.4,3,1.3
		c0.8,0.8,1.3,1.8,1.3,3v6.4c0,0.6,0.2,1.1,0.6,1.5c0.4,0.4,0.9,0.6,1.5,0.6s1.1-0.2,1.5-0.6c0.4-0.4,0.6-0.9,0.6-1.5v-6.4
		c0-2.4-0.8-4.4-2.5-6C169.1,8.4,167.1,7.5,164.7,7.5z"/>
	<path class="st0" d="M185.1,7.5c-2.4,0-4.4,0.8-6,2.5c-1.7,1.7-2.5,3.7-2.5,6c0,2.4,0.8,4.4,2.5,6c1.7,1.7,3.7,2.5,6,2.5
		c2.3,0,4.3-0.8,6-2.5c1.7-1.7,2.5-3.7,2.5-6c0-2.4-0.8-4.4-2.5-6C189.4,8.3,187.4,7.5,185.1,7.5z M188.1,19c-0.8,0.8-1.8,1.2-3,1.2
		c-1.2,0-2.2-0.4-3-1.2c-0.8-0.8-1.3-1.8-1.3-3c0-1.2,0.4-2.2,1.3-3c0.8-0.8,1.8-1.3,3-1.3c1.2,0,2.2,0.4,3,1.3
		c0.8,0.8,1.3,1.8,1.3,3C189.4,17.2,188.9,18.2,188.1,19z"/>
	<path class="st0" d="M211.5,10c-1.7-1.7-3.7-2.5-6-2.5c-2.4,0-4.4,0.8-6,2.5c-1.7,1.7-2.5,3.7-2.5,6v12.8c0,0.6,0.2,1.1,0.6,1.5
		c0.4,0.4,0.9,0.6,1.5,0.6c0.6,0,1.1-0.2,1.5-0.6c0.4-0.4,0.6-0.9,0.6-1.5V16c0-1.2,0.4-2.2,1.3-3c0.8-0.8,1.8-1.3,3-1.3
		c1.2,0,2.2,0.4,3,1.3c0.8,0.8,1.3,1.8,1.3,3c0,1.2-0.4,2.2-1.3,3c-0.8,0.8-1.8,1.2-3,1.2c-0.6,0-1.1,0.2-1.5,0.6
		c-0.4,0.4-0.6,0.9-0.6,1.5c0,0.6,0.2,1.1,0.6,1.5c0.4,0.4,0.9,0.6,1.5,0.6c2.3,0,4.3-0.8,6-2.5c1.7-1.7,2.5-3.7,2.5-6
		C214,13.6,213.2,11.6,211.5,10z"/>
	<path class="st0" d="M147.6,11.7c-1.2-0.4-2.7-0.9-4.7-1.3c-2.3-0.5-3.3-0.9-3.7-1.2c-0.5-0.3-0.7-0.7-0.7-1.4c0-0.7,0.3-1.3,1-1.7
		c0.7-0.5,1.8-0.8,3.3-0.8c3.1,0,4,1.1,4.6,2.2c0.7,1.2,1,1.7,1.9,1.8c0.8,0.1,1.7-0.2,2.2-0.9c0.4-0.5,0.5-1.2,0.2-1.8l0-0.1
		c-0.7-1.5-1.6-2.8-2.7-3.6c-1.8-1.3-3.9-1.9-6.3-1.9c-2.5,0-4.6,0.6-6.1,1.9c-1.6,1.3-2.4,3-2.4,5c0,1.8,0.6,3.3,1.9,4.4
		c1.2,1,3.1,1.8,5.7,2.4c2.4,0.5,4.1,1,5.1,1.5c0.8,0.4,1.1,1,1.1,1.9c0,0.9-0.4,1.5-1.1,2c-0.8,0.6-2,0.9-3.4,0.9
		c-1.5,0-2.8-0.3-3.9-1c-0.7-0.5-1.5-2-1.5-2c-0.3-0.9-1.2-1.5-2.1-1.5c-1.2,0-2.2,1-2.2,2.2c0,0.3,0.1,0.7,0.3,1
		c0.4,1.3,1.2,2.4,2.1,3.2c1.7,1.5,4.2,2.3,7.4,2.3c2.6,0,4.7-0.7,6.4-2c1.7-1.4,2.5-3.2,2.5-5.3c0-1.7-0.5-3.1-1.4-4.1
		C150,12.9,148.9,12.2,147.6,11.7z"/>
</g>
</svg>